#!OML:ASF C:\Vicon Data\Big\jianyuan-13\jianyuan\Session 1\Capture.male.ASF
:FULLY-SPECIFIED
:DEGREES
42
root -8.501510 18.060187 -20.070653 9.730538 9.982324 0.382785
lowerback -11.371158 -2.319046 -0.467975 
upperback 2.156742 -3.144718 1.333547 
thorax 8.797060 -1.585357 1.091820 
lowerneck -2.937343 -2.151442 4.207264 
upperneck 2.400002 -2.942887 -3.502953 
head 1.131897 -1.487034 -1.871069 
rclavicle 0.000000 0.000000 
rhumerus -43.126612 -19.279190 -77.171179 
rradius 29.268023 
rwrist 31.813763 
rhand -18.730474 -18.891503 
rfingers 0.000000 
rthumb 7.565278 -48.736173 
lclavicle 0.000000 0.000000 
lhumerus -27.913827 8.087178 92.693294 
lradius 43.705241 
lwrist -32.067816 
lhand -21.095932 3.169734 
lfingers 0.000000 
lthumb 5.281697 33.083932 
rfemur -32.891940 1.831483 21.317917 
rtibia 33.475278 
rfoot -10.061291 -7.747580 
rtoes -26.338141 
lfemur -20.551060 6.227196 -14.532177 
ltibia 72.227325 
lfoot 1.768222 12.280486 
ltoes -31.969223 
43
root -8.525765 18.069840 -19.970764 9.626897 9.990900 0.403087
lowerback -11.157908 -2.193245 -0.564837 
upperback 2.174953 -2.960640 1.311520 
thorax 8.691905 -1.501228 1.165171 
lowerneck -2.999548 -2.194931 4.086301 
upperneck 2.493141 -3.001933 -3.319801 
head 1.173138 -1.514767 -1.793724 
rclavicle 0.000000 0.000000 
rhumerus -42.279693 -18.622371 -77.855406 
rradius 29.673725 
rwrist 31.481464 
rhand -18.446436 -18.754929 
rfingers 0.000000 
rthumb 7.839443 -48.589598 
lclavicle 0.000000 0.000000 
lhumerus -27.950283 9.419006 92.180475 
lradius 42.677773 
lwrist -32.142209 
lhand -20.517600 1.585959 
lfingers 0.000000 
lthumb 5.840126 31.485478 
rfemur -32.373599 1.800371 21.498804 
rtibia 33.483336 
rfoot -10.460470 -7.662150 
rtoes -26.473462 
lfemur -22.115425 6.234149 -14.619172 
ltibia 73.984665 
lfoot 1.529229 11.819627 
ltoes -32.254969 
44
root -8.549779 18.079860 -19.866474 9.458748 10.024083 0.330893
lowerback -11.000174 -2.057079 -0.558936 
upperback 2.249540 -2.779831 1.305877 
thorax 8.675355 -1.413852 1.193718 
lowerneck -3.084695 -2.291301 4.065462 
upperneck 2.520118 -3.134927 -3.235587 
head 1.192408 -1.580485 -1.766860 
rclavicle 0.000000 0.000000 
rhumerus -41.394145 -17.898232 -78.601011 
rradius 30.244924 
rwrist 30.320995 
rhand -18.495465 -18.903104 
rfingers 0.000000 
rthumb 7.792120 -48.739492 
lclavicle 0.000000 0.000000 
lhumerus -28.011668 11.232711 91.444610 
lradius 41.345405 
lwrist -33.003861 
lhand -20.741502 -1.155330 
lfingers 0.000000 
lthumb 5.623912 28.750056 
rfemur -31.779379 1.907595 21.738202 
rtibia 33.506555 
rfoot -10.940484 -7.699015 
rtoes -26.484193 
lfemur -23.633592 6.167915 -14.597484 
ltibia 75.706636 
lfoot 1.372244 11.266100 
ltoes -32.566454 
45
root -8.567475 18.088675 -19.771057 9.033568 10.216722 0.369535
lowerback -10.420631 -1.969327 -0.583734 
upperback 2.338322 -2.655363 1.252514 
thorax 8.430416 -1.354615 1.191018 
lowerneck -3.177133 -2.384787 4.060072 
upperneck 2.664633 -3.262057 -3.195880 
head 1.249987 -1.643286 -1.759313 
rclavicle 0.000000 0.000000 
rhumerus -40.525614 -17.386238 -79.173063 
rradius 30.757633 
rwrist 29.259820 
rhand -18.266271 -18.845290 
rfingers 0.000000 
rthumb 8.013345 -48.673430 
lclavicle 0.000000 0.000000 
lhumerus -28.192533 12.020088 90.969296 
lradius 40.518436 
lwrist -33.420987 
lhand -21.107901 -1.111795 
lfingers 0.000000 
lthumb 5.270159 28.802706 
rfemur -30.907227 1.761298 21.856939 
rtibia 33.528605 
rfoot -11.411547 -7.642636 
rtoes -26.587764 
lfemur -24.950401 5.862221 -14.720077 
ltibia 77.421378 
lfoot 1.144354 10.636492 
ltoes -32.851210 
46
root -8.592997 18.096561 -19.675627 8.878219 10.218815 0.259044
lowerback -10.117793 -1.900430 -0.603483 
upperback 2.320576 -2.569219 1.365219 
thorax 8.239939 -1.317252 1.346468 
lowerneck -3.058405 -2.376505 3.667338 
upperneck 2.592809 -3.236529 -2.996751 
head 1.214586 -1.630661 -1.622026 
rclavicle 0.000000 0.000000 
rhumerus -39.800612 -16.200914 -79.858677 
rradius 31.528364 
rwrist 28.593023 
rhand -17.981845 -18.825187 
rfingers 0.000000 
rthumb 8.287876 -48.642584 
lclavicle 0.000000 0.000000 
lhumerus -28.538963 12.886019 90.910188 
lradius 40.064522 
lwrist -34.042500 
lhand -21.235904 0.581786 
lfingers 0.000000 
lthumb 5.146609 30.499266 
rfemur -30.394374 1.693493 22.182198 
rtibia 33.576348 
rfoot -11.800837 -7.460588 
rtoes -26.507020 
lfemur -26.577645 5.919765 -14.659098 
ltibia 79.099213 
lfoot 1.132315 9.783822 
ltoes -34.282681 
47
root -8.618995 18.098849 -19.587811 8.905880 10.297011 0.279345
lowerback -9.949557 -1.652990 -0.631506 
upperback 2.300731 -2.219303 1.174103 
thorax 8.102238 -1.142959 1.224821 
lowerneck -3.164391 -2.541297 4.110144 
upperneck 2.620740 -3.480262 -2.967894 
head 1.227586 -1.747891 -1.696834 
rclavicle 0.000000 0.000000 
rhumerus -39.239768 -15.729577 -80.706047 
rradius 32.440061 
rwrist 27.407205 
rhand -17.977084 -18.952925 
rfingers 0.000000 
rthumb 8.292470 -48.770171 
lclavicle 0.000000 0.000000 
lhumerus -28.695717 13.199179 90.342180 
lradius 39.261626 
lwrist -34.557182 
lhand -21.454020 0.989035 
lfingers 0.000000 
lthumb 4.935965 30.911543 
rfemur -30.124223 1.859795 22.296084 
rtibia 33.682065 
rfoot -12.229081 -7.562929 
rtoes -26.566850 
lfemur -28.488494 5.786625 -14.792606 
ltibia 80.780204 
lfoot 1.268467 8.872272 
ltoes -35.656325 
48
root -8.642143 18.102050 -19.493519 9.053369 10.336172 0.260374
lowerback -9.968507 -1.512179 -0.608759 
upperback 2.220297 -2.027608 1.103634 
thorax 8.017042 -1.046030 1.170418 
lowerneck -3.147294 -2.670383 4.242725 
upperneck 2.590641 -3.658418 -2.957362 
head 1.206472 -1.835405 -1.718429 
rclavicle 0.000000 0.000000 
rhumerus -38.442297 -15.107031 -81.403434 
rradius 33.138030 
rwrist 26.572568 
rhand -18.241776 -19.560837 
rfingers 0.000000 
rthumb 8.037008 -49.388003 
lclavicle 0.000000 0.000000 
lhumerus -28.984633 14.065268 89.743305 
lradius 38.525619 
lwrist -35.151262 
lhand -21.514225 0.760947 
lfingers 0.000000 
lthumb 4.877816 30.684759 
rfemur -29.943348 1.916557 22.481850 
rtibia 33.779142 
rfoot -12.643783 -7.559170 
rtoes -26.300317 
lfemur -30.472628 5.794917 -14.872706 
ltibia 82.414820 
lfoot 1.277973 7.796585 
ltoes -36.358393 
49
root -8.657844 18.109139 -19.395876 8.803344 10.277621 0.204226
lowerback -9.663234 -1.341186 -0.513068 
upperback 2.278818 -1.808957 1.066948 
thorax 7.892885 -0.934329 1.120348 
lowerneck -3.164198 -2.744283 4.119662 
upperneck 2.577373 -3.755033 -2.869870 
head 1.204570 -1.883592 -1.670194 
rclavicle 0.000000 0.000000 
rhumerus -37.745783 -14.367783 -81.968736 
rradius 34.024685 
rwrist 25.624820 
rhand -17.925198 -19.354294 
rfingers 0.000000 
rthumb 8.342502 -49.169560 
lclavicle 0.000000 0.000000 
lhumerus -29.358366 14.881380 89.179574 
lradius 37.908668 
lwrist -36.205745 
lhand -22.015571 0.841168 
lfingers 0.000000 
lthumb 4.393704 30.775507 
rfemur -29.262871 1.802235 22.709261 
rtibia 33.678274 
rfoot -12.889914 -7.302652 
rtoes -26.279707 
lfemur -31.998804 5.724972 -14.964317 
ltibia 83.935682 
lfoot 1.152934 6.842440 
ltoes -36.627884 
50
root -8.665181 18.118395 -19.285501 8.298343 10.115956 0.160355
lowerback -9.273096 -1.135717 -0.409923 
upperback 2.448682 -1.546334 1.040394 
thorax 7.839068 -0.801626 1.082902 
lowerneck -3.148749 -2.801866 3.991625 
upperneck 2.462081 -3.830007 -2.764355 
head 1.166060 -1.921155 -1.612560 
rclavicle 0.000000 0.000000 
rhumerus -37.051559 -13.543461 -82.480574 
rradius 34.971259 
rwrist 24.581867 
rhand -17.865946 -19.388604 
rfingers 0.000000 
rthumb 8.399705 -49.201540 
lclavicle 0.000000 0.000000 
lhumerus -29.633582 15.799204 88.657595 
lradius 37.154739 
lwrist -37.204826 
lhand -22.294588 0.762483 
lfingers 0.000000 
lthumb 4.124291 30.702335 
rfemur -28.200671 1.789425 22.883764 
rtibia 33.495940 
rfoot -13.179110 -7.066379 
rtoes -26.481518 
lfemur -33.114996 5.807396 -15.081316 
ltibia 85.348814 
lfoot 0.833853 5.892983 
ltoes -36.998835 
51
root -8.683851 18.120336 -19.191687 8.346336 10.114398 0.087775
lowerback -9.221846 -0.980077 -0.294908 
upperback 2.407594 -1.347306 0.980758 
thorax 7.755831 -0.697196 0.988005 
lowerneck -3.107692 -2.879376 4.028003 
upperneck 2.358005 -3.935659 -2.724837 
head 1.122146 -1.973361 -1.604895 
rclavicle 0.000000 0.000000 
rhumerus -36.339444 -13.027631 -82.971491 
rradius 35.824878 
rwrist 23.630924 
rhand -17.883183 -19.228084 
rfingers 0.000000 
rthumb 8.383055 -49.041738 
lclavicle 0.000000 0.000000 
lhumerus -30.079277 16.521916 88.004489 
lradius 36.662053 
lwrist -37.914815 
lhand -22.367597 0.750537 
lfingers 0.000000 
lthumb 4.053813 30.691741 
rfemur -27.868659 1.787524 23.120986 
rtibia 33.431052 
rfoot -13.482478 -6.999884 
rtoes -26.461071 
lfemur -35.056235 5.787423 -15.189087 
ltibia 86.799579 
lfoot 0.775004 4.916829 
ltoes -38.103581 
52
root -8.699609 18.124266 -19.095705 8.191931 10.113663 0.087316
lowerback -8.995954 -0.824067 -0.216503 
upperback 2.438025 -1.140092 0.876432 
thorax 7.649363 -0.589686 0.869143 
lowerneck -3.148454 -2.987295 4.152976 
upperneck 2.340227 -4.084192 -2.821208 
head 1.114450 -2.048339 -1.660252 
rclavicle 0.000000 0.000000 
rhumerus -35.818320 -12.306350 -83.534317 
rradius 36.987483 
rwrist 22.651328 
rhand -17.910918 -19.440191 
rfingers 0.000000 
rthumb 8.356346 -49.254900 
lclavicle 0.000000 0.000000 
lhumerus -30.397986 17.056672 87.284122 
lradius 36.032321 
lwrist -38.365646 
lhand -22.484751 0.601396 
lfingers 0.000000 
lthumb 3.940639 30.544706 
rfemur -27.307761 1.633988 23.297002 
rtibia 33.423069 
rfoot -13.814373 -6.808378 
rtoes -26.547488 
lfemur -36.708928 5.813885 -15.372587 
ltibia 88.175352 
lfoot 0.592381 3.928447 
ltoes -38.897347 
